<svg xmlns="http://www.w3.org/2000/svg" xmlns:svg="http://www.w3.org/2000/svg" id="svg2" width="256" height="256" version="1.1"><metadata id="metadata7"/><g id="layer1" transform="translate(0,-796.36218)"><g id="g3005" transform="matrix(2.0200806,0,0,2.0200806,1.3694757,-1070.944)"><path id="path2985" fill="#fff" fill-opacity="1" fill-rule="nonzero" stroke="none" d="m 460,455.36218 c 0,62.96046 -51.03954,114 -114,114 -62.96046,0 -114,-51.03954 -114,-114 0,-62.96046 51.03954,-114 114,-114 62.96046,0 114,51.03954 114,114 z" transform="matrix(0.49849233,0,0,0.49849233,-109.15022,766.03947)"/><path id="path3757" fill="none" stroke="#000" stroke-dashoffset="0" stroke-linecap="round" stroke-linejoin="round" stroke-miterlimit="4" stroke-opacity="1" stroke-width="5.719" d="m 111.69922,993.03405 c 0,26.71465 -21.656479,48.37105 -48.371095,48.37105 -26.714616,0 -48.371094,-21.6564 -48.371094,-48.37105 0,-26.71462 21.656478,-48.37109 48.371094,-48.37109 26.714616,0 48.371095,21.65647 48.371095,48.37109 z"/><rect id="rect3759" width="20.016" height="33.359" x="54.273" y="925.362" fill="#fff" fill-opacity="1" stroke="none" rx="5.719" ry="5.242"/><rect id="rect3761" width="20.016" height="33.359" x="53.32" y="926.315" fill="#fff" fill-opacity="1" stroke="none" rx="5.719" ry="5.242"/><path id="path3770" fill="none" stroke="#000" stroke-dasharray="none" stroke-linecap="butt" stroke-linejoin="miter" stroke-miterlimit="4" stroke-opacity="1" stroke-width="5.719" d="m 63.328125,931.08093 c 0,33.83593 0,25.25781 0,25.25781"/></g><text id="text3779" x="75.386" y="993.789" fill="#000" fill-opacity="1" fill-rule="nonzero" stroke="none" stroke-width="1" color="#000" direction="ltr" display="inline" enable-background="accumulate" font-family="Arial Black" font-size="13.478" font-stretch="normal" font-style="normal" font-variant="normal" font-weight="bold" letter-spacing="0" overflow="visible" text-anchor="start" text-decoration="none" visibility="visible" word-spacing="0" writing-mode="lr-tb" xml:space="preserve" style="text-indent:0;text-align:start;line-height:125%;text-transform:none;block-progression:tb;marker:none;-inkscape-font-specification:'Arial Black, Bold'"><tspan id="tspan3781" x="75.386" y="993.789" fill="red" fill-opacity="1" font-family="Century Schoolbook L" font-size="138.628" font-stretch="normal" font-style="normal" font-variant="normal" font-weight="bold" style="-inkscape-font-specification:Century Schoolbook L Bold">V</tspan></text></g></svg>